# xmcd CD database file
#
# Track frame offsets:
#	150
#	17392
#	28345
#	40480
#	51270
#	64377
#	82060
#	95125
#	110587
#	125162
#
# Disc length: 1823 seconds
#
# Revision: 0
# Processed by: cddbd v1.4PL0 Copyright (c) Steve Scherf et al.
# Submitted via: CDex 1.40Release
#
DISCID=94071d0a
DTITLE=Billy Walker - Let My Faith Begin To Move
DYEAR=1900
DGENRE=Country
TTITLE0=Let My Faith Begin To Move
TTITLE1=I'm Gonna Rise
TTITLE2=His Hands
TTITLE3=There's A Payday Coming
TTITLE4=Only The Children
TTITLE5=I Will Know Him When I See Him
TTITLE6=I'm Going Home
TTITLE7=I'll See You In The Rapture
TTITLE8=He Only Needs It For The Weekend
TTITLE9=Refuge For Wild Life
EXTD=ID3G: 2
EXTT0=
EXTT1=
EXTT2=
EXTT3=
EXTT4=
EXTT5=
EXTT6=
EXTT7=
EXTT8=
EXTT9=
PLAYORDER=
